<?xml version="1.0" encoding="utf-8"?>
<!-- Generator: Adobe Illustrator 21.1.0, SVG Export Plug-In . SVG Version: 6.00 Build 0)  -->
<svg version="1.1" xmlns="http://www.w3.org/2000/svg" xmlns:xlink="http://www.w3.org/1999/xlink" x="0px" y="0px"
	 viewBox="0 0 335 335" style="enable-background:new 0 0 335 335;" xml:space="preserve">
<style type="text/css">
	.st0{display:none;fill:none;stroke:#000000;stroke-width:0.25;stroke-miterlimit:10;}
	.st1{fill:#FFC745;}
	.st2{fill:#FF7A00;}
	.st3{fill:#86415E;}
	.st4{fill:#FFA24C;}
	.st5{fill:#FF7E15;}
	.st6{fill:#FF4D00;}
	.st7{fill:#86291C;}
	.st8{fill:#FF9115;}
	.st9{fill:#FF7B06;}
	.st10{fill:#864113;}
	.st11{fill:#862906;}
	.st12{fill:#FF5006;}
	.st13{fill:#FF3100;}
	.st14{fill:#FF4E02;}
	.st15{fill:#AA7A8E;}
	.st16{fill:#AA4D2B;}
	.st17{fill:#713A4F;}
	.st18{fill:#712519;}
	.st19{fill:#586473;}
	.st20{fill:#FFFFFF;}
</style>
<g id="Hilfslinien">
	<line class="st0" x1="241.8" y1="213.5" x2="119.1" y2="142.6"/>
</g>
<g id="Ebene_4">
	<g>
		<path class="st1" d="M82.2,163.9l-36.8,21.3L82.2,163.9L82.2,163.9 M168.2,114.3l-12.3,7.1l0,0l0,0l36.8,21.3l-36.8,21.3
			l36.8,21.3l-73.6,42.5l-73.6-42.5L168.2,256l122.7-70.9L168.2,114.3"/>
		<polyline class="st2" points="45.4,185.2 119.1,227.7 192.7,185.2 119.1,142.6 45.4,185.2 		"/>
		<polyline class="st3" points="94.5,213.5 143.6,185.2 94.5,156.8 45.4,185.2 94.5,213.5 		"/>
		<polyline class="st4" points="131.4,107.2 94.5,128.5 94.5,128.5 94.5,128.5 82.2,121.4 45.4,142.6 82.2,163.9 155.9,121.4 
			131.4,107.2 		"/>
		<polyline class="st5" points="155.9,121.4 82.2,163.9 82.2,163.9 119.1,142.6 119.1,142.6 155.9,121.4 155.9,121.4 		"/>
		<polyline class="st6" points="119.1,142.6 82.2,163.9 82.2,163.9 94.5,156.8 94.5,156.8 94.5,156.8 94.5,156.8 94.5,156.8 
			119.1,142.6 119.1,142.6 		"/>
		<polyline class="st7" points="94.5,156.8 82.2,163.9 119.1,185.2 119.1,185.1 82.3,163.9 94.5,156.8 94.5,156.8 		"/>
		<polyline class="st8" points="155.9,121.4 155.9,121.4 192.7,142.6 155.9,163.9 155.9,163.9 192.7,142.6 155.9,121.4 		"/>
		<polyline class="st9" points="155.9,121.4 119.1,142.6 155.9,163.9 192.7,142.6 155.9,121.4 		"/>
		<polyline class="st2" points="131.4,178.1 131.3,178.1 131.3,178.1 131.4,178.1 131.4,178.1 131.4,178.1 		"/>
		<polyline class="st10" points="131.3,178.1 119.1,185.1 119.1,185.2 131.4,178.1 131.3,178.1 		"/>
		<polyline class="st6" points="94.5,156.8 94.5,156.8 131.3,178.1 131.3,178.1 94.5,156.8 		"/>
		<polyline class="st11" points="94.5,156.8 82.3,163.9 119.1,185.1 131.3,178.1 94.5,156.8 		"/>
		<polyline class="st5" points="155.9,163.9 155.9,163.9 155.9,163.9 155.9,163.9 		"/>
		<polyline class="st6" points="155.9,163.9 131.4,178.1 131.4,178.1 155.9,163.9 155.9,163.9 		"/>
		<polyline class="st12" points="119.1,142.6 119.1,142.6 155.9,163.9 155.9,163.9 119.1,142.6 		"/>
		<polyline class="st13" points="119.1,142.6 94.5,156.8 94.5,156.8 94.5,156.8 94.5,156.8 131.4,178.1 155.9,163.9 119.1,142.6 		
			"/>
		<polyline class="st14" points="119.1,142.6 119.1,142.6 155.9,163.9 155.9,163.9 119.1,142.6 		"/>
		<polyline class="st6" points="131.4,178.1 131.3,178.1 131.3,178.1 131.4,178.1 131.4,178.1 		"/>
		<polyline class="st13" points="94.5,156.8 94.5,156.8 131.3,178.1 131.4,178.1 94.5,156.8 		"/>
		<polyline class="st15" points="94.5,71.8 45.4,100.1 82.2,121.4 119.1,100.1 119.1,100.1 119.1,100.1 131.4,107.2 143.6,100.1 
			94.5,71.8 		"/>
		<polyline class="st16" points="119.1,100.1 82.2,121.4 94.5,128.5 94.5,128.5 82.3,121.4 119.1,100.1 119.1,100.1 		"/>
		<polyline class="st15" points="131.4,107.2 131.3,107.2 131.4,107.2 131.4,107.2 131.4,107.2 		"/>
		<polyline class="st16" points="131.3,107.2 94.5,128.5 94.5,128.5 131.4,107.2 131.3,107.2 		"/>
		<polyline class="st17" points="119.1,100.1 119.1,100.1 131.3,107.2 131.4,107.2 119.1,100.1 		"/>
		<polyline class="st18" points="119.1,100.1 82.3,121.4 94.5,128.5 131.3,107.2 119.1,100.1 		"/>
	</g>
</g>
<g id="typography">
	<polygon style="fill:none;" points="-73.9,-21.3 -156.1,26.2 -174.8,15.5 -92.5,-32 	"/>
	
		<text transform="matrix(0.75 -0.433 0.7794 0.45 -161.1624 23.3237)" class="st19" style="font-family:'HelveticaNeue-Medium'; font-size:22px;">maplab.</text>
	<g>
		<path class="st20" d="M169,242.1c-1.3-0.7-3-0.7-4-0.2c-1,0.6-1.1,1.6,0.3,2.4l4.8,2.8c0.3,0.2,0.2,0.5-0.2,0.8
			c-0.4,0.2-1,0.3-1.3,0.1l-7.8-4.5c-0.3-0.2-0.2-0.5,0.2-0.7c0.4-0.2,0.9-0.3,1.2-0.1l0.8,0.4c-0.3-0.7-0.2-1.5,1-2.2
			c1.1-0.7,2.8-0.7,4.3-0.3c-0.6-1.1-0.2-2.1,0.9-2.7c1.6-0.9,4.4-1,6.7,0.3l4.8,2.8c0.3,0.2,0.2,0.5-0.2,0.8
			c-0.4,0.2-1,0.3-1.3,0.1l-4.8-2.8c-1.4-0.8-3.2-0.7-4.1-0.2c-1,0.6-1.1,1.6,0.2,2.3l4.9,2.8c0.4,0.2,0.2,0.5-0.2,0.8
			c-0.3,0.2-0.9,0.3-1.3,0.1L169,242.1z"/>
		<path class="st20" d="M184.2,233.4l4.8,2.8c0.3,0.2,0.3,0.5-0.2,0.8c-0.4,0.2-0.9,0.3-1.2,0.1l-0.7-0.4c0.1,0.8-0.1,1.7-1.3,2.4
			c-1.4,0.8-3.2,0.9-4.9,0c-2.1-1.2-0.9-2.5,1.6-3.9l0.9-0.5l-0.4-0.2c-1.1-0.6-2.9-1-4.3-0.2c-1.3,0.7-1.1,1.3-1.4,1.4
			c-0.4,0.2-1,0.1-1.3-0.1c-0.6-0.3,0.3-1.4,1.5-2.1C179.7,231.9,182.4,232.4,184.2,233.4z M184.1,235.1l-0.6,0.4
			c-1.5,0.9-2.8,1.8-1.5,2.5c1,0.6,2,0.5,2.8,0c1-0.6,1.1-1.9,0.3-2.4L184.1,235.1z"/>
		<path class="st20" d="M185,229.5l0.8,0.4c-0.3-0.7-0.2-1.5,1-2.2c1.8-1,4.9-0.9,6.8,0.2l1.9,1.1c1.9,1.1,2.2,2.9,0.5,3.9
			c-1.1,0.6-2.7,0.8-3.9,0.5l5,2.9c0.3,0.2,0.2,0.5-0.2,0.8c-0.4,0.2-1,0.3-1.3,0.1l-12.1-7c-0.3-0.2-0.2-0.5,0.2-0.7
			C184.2,229.4,184.7,229.3,185,229.5z M192.1,228.8c-1.1-0.6-3.1-0.7-4.3-0.1c-1,0.6-1.2,1.6,0.2,2.4l2.4,1.4
			c0.5,0.3,2.6,0.5,3.8-0.2c1.1-0.6,0.9-1.8-0.2-2.5L192.1,228.8z"/>
		<path class="st20" d="M189.1,221l13.1,7.6c0.3,0.2,0.2,0.5-0.2,0.8c-0.4,0.2-1,0.3-1.3,0.1l-13.1-7.6c-0.3-0.2-0.2-0.5,0.2-0.7
			C188.2,220.9,188.8,220.8,189.1,221z"/>
		<path class="st20" d="M206,220.9l4.8,2.8c0.3,0.2,0.3,0.5-0.2,0.8c-0.4,0.2-0.9,0.3-1.2,0.1l-0.7-0.4c0.1,0.8-0.1,1.7-1.3,2.4
			c-1.3,0.8-3.2,0.9-4.9,0c-2.1-1.2-0.9-2.5,1.6-3.9l0.9-0.5l-0.4-0.2c-1.1-0.6-2.9-1-4.3-0.2c-1.3,0.7-1.1,1.3-1.4,1.4
			c-0.4,0.2-1,0.1-1.3-0.1c-0.6-0.3,0.3-1.4,1.5-2.1C201.5,219.3,204.1,219.8,206,220.9z M205.9,222.5l-0.6,0.4
			c-1.5,0.9-2.8,1.8-1.5,2.5c1,0.6,2,0.5,2.8,0c1-0.6,1.1-1.9,0.3-2.4L205.9,222.5z"/>
		<path class="st20" d="M201.5,213.8l6.1,3.5c-0.3-0.6-0.2-1.5,0.9-2.2c1.8-1,4.9-0.9,6.8,0.2l1.9,1.1c1.9,1.1,2.2,2.9,0.5,3.9
			c-1.1,0.7-2.8,0.8-3.9,0.6l0.7,0.4c0.3,0.2,0.3,0.5-0.1,0.7c-0.4,0.2-1,0.3-1.3,0.1l-13.1-7.6c-0.3-0.2-0.2-0.5,0.2-0.7
			C200.6,213.7,201.2,213.7,201.5,213.8z M213.9,216.3c-1.1-0.6-3.1-0.7-4.2-0.1c-1,0.6-1.2,1.7,0.2,2.4l2.4,1.4
			c0.5,0.3,2.6,0.5,3.8-0.2c1.1-0.6,0.9-1.8-0.2-2.5L213.9,216.3z"/>
		<path class="st20" d="M223.5,216c0.5,0.3,0.6,0.8,0.1,1.1c-0.5,0.3-1.4,0.3-1.9,0c-0.5-0.3-0.6-0.8-0.1-1.1
			C222.1,215.6,222.9,215.7,223.5,216z"/>
	</g>
</g>
</svg>
