<?xml version="1.0" encoding="utf-8"?>
<!-- Generator: Adobe Illustrator 16.0.0, SVG Export Plug-In . SVG Version: 6.00 Build 0)  -->
<!DOCTYPE svg PUBLIC "-//W3C//DTD SVG 1.1//EN" "http://www.w3.org/Graphics/SVG/1.1/DTD/svg11.dtd">
<svg version="1.1" xmlns="http://www.w3.org/2000/svg" xmlns:xlink="http://www.w3.org/1999/xlink" x="0px" y="0px" width="335px"
	 height="335px" viewBox="0 0 335 335" enable-background="new 0 0 335 335" xml:space="preserve">
<g id="logo">
	<polygon fill="#FFC745" points="290.906,185.151 168.162,114.284 45.418,185.151 168.162,256.019 	"/>
	<polygon fill="#FF7A00" points="45.418,185.151 119.064,227.671 192.711,185.151 119.064,142.632 	"/>
	<polyline fill="#86415E" points="94.516,213.497 143.613,185.151 94.516,156.806 94.516,156.806 45.418,185.151 94.516,213.497 	
		"/>
	<polygon opacity="0.7" fill="#FF7A00" points="45.418,142.632 119.064,185.151 192.711,142.632 119.064,100.112 	"/>
	<polygon opacity="0.7" fill="#FF7A00" points="155.889,121.372 119.066,142.632 155.889,163.892 192.713,142.632 	"/>
	<polygon opacity="0.8" fill="#FF7A00" points="119.094,185.151 131.369,178.065 94.545,156.806 94.545,156.806 82.271,163.892 	"/>
	<polygon opacity="0.7" fill="#FF7A00" points="119.066,142.632 94.516,156.806 94.518,156.806 131.34,178.064 155.889,163.892 	"/>
	<polyline opacity="0.7" fill="#86415E" points="94.516,128.468 143.613,100.122 94.516,71.776 94.516,71.776 45.418,100.122 
		94.516,128.468 	"/>
	<polygon opacity="0.7" fill="#86415E" points="94.545,128.462 131.377,107.198 119.094,100.106 82.263,121.371 	"/>
</g>
<g id="typography">
	<polygon fill="none" points="254.182,204.1 171.911,251.599 153.243,240.821 235.516,193.322 	"/>
	
		<text transform="matrix(0.75 -0.433 0.7794 0.45 166.8887 248.6758)" fill="#FFFFFF" font-family="'Dosis'" font-size="22">maplab.</text>
		<!-- <text transform="matrix(0.75 -0.433 0.7794 0.45 166.8887 248.6758)" fill="#FFFFFF" font-family="'Dosis-Medium'" font-size="22">maplab.</text> -->
</g>
<g id="Hilfslinien">
	
		<line display="none" fill="none" stroke="#000000" stroke-width="0.25" stroke-miterlimit="10" x1="241.81" y1="213.499" x2="119.065" y2="142.632"/>
</g>
</svg>
