<?xml version="1.0" encoding="utf-8"?>
<!-- Generator: Adobe Illustrator 16.0.4, SVG Export Plug-In . SVG Version: 6.00 Build 0)  -->
<!DOCTYPE svg PUBLIC "-//W3C//DTD SVG 1.1//EN" "http://www.w3.org/Graphics/SVG/1.1/DTD/svg11.dtd">
<svg version="1.1" id="Ebene_1" xmlns="http://www.w3.org/2000/svg" xmlns:xlink="http://www.w3.org/1999/xlink" x="0px" y="0px"
	 width="595.279px" height="841.891px" viewBox="0 0 595.279 841.891" enable-background="new 0 0 595.279 841.891"
	 xml:space="preserve">
<g id="Hilfslinien">
	
		<line display="none" fill="none" stroke="#000000" stroke-width="0.25" stroke-miterlimit="10" x1="429.668" y1="502.686" x2="211.635" y2="376.699"/>
</g>
<g id="Ebene_4">
	<g>
		<path fill="#FFC745" d="M145.899,414.381l-65.392,37.85L145.899,414.381L145.899,414.381 M298.718,326.244l-21.857,12.616l0,0l0,0
			l65.392,37.849l-65.392,37.849l65.392,37.85l-130.785,75.521L80.685,452.408l218.033,125.631l218.031-125.986L298.718,326.244"/>
		<polyline fill="#FF7A00" points="80.674,452.397 211.635,527.918 342.419,452.397 211.635,376.699 80.674,452.397 		"/>
		<polyline fill="#86415E" points="167.922,502.686 255.171,452.397 167.922,401.932 80.674,452.397 167.922,502.686 		"/>
		<polyline fill="#FFA24C" points="233.492,313.794 167.922,351.644 167.922,351.644 167.922,351.644 146.066,339.027 
			80.674,376.699 146.066,414.548 277.028,339.027 233.492,313.794 		"/>
		<polyline fill="#FF7E15" points="277.028,339.027 146.066,414.548 146.066,414.548 211.635,376.699 211.635,376.699 
			277.028,339.027 277.028,339.027 		"/>
		<polyline fill="#FF4D00" points="211.635,376.699 146.066,414.548 146.066,414.548 167.922,401.932 167.922,401.932 
			167.922,401.932 167.922,401.932 167.922,401.932 211.635,376.699 211.635,376.699 		"/>
		<polyline fill="#86291C" points="167.922,401.932 146.066,414.548 211.635,452.397 211.635,452.22 146.243,414.548 
			167.922,401.932 167.922,401.932 		"/>
		<polyline fill="#FF9115" points="277.028,339.027 277.028,339.027 342.419,376.699 277.028,414.548 277.028,414.548 
			342.419,376.699 277.028,339.027 		"/>
		<polyline fill="#FF7B06" points="277.028,339.027 211.635,376.699 277.028,414.548 342.419,376.699 277.028,339.027 		"/>
		<polyline fill="#FF7A00" points="233.492,439.781 233.315,439.781 233.315,439.781 233.492,439.781 233.492,439.781 
			233.492,439.781 		"/>
		<polyline fill="#864113" points="233.315,439.781 211.635,452.22 211.635,452.397 233.492,439.781 233.315,439.781 		"/>
		<polyline fill="#FF4D00" points="167.922,401.932 167.922,401.932 233.315,439.781 233.315,439.781 167.922,401.932 		"/>
		<polyline fill="#862906" points="167.922,401.932 146.243,414.548 211.635,452.22 233.315,439.781 167.922,401.932 		"/>
		<polyline fill="#FF7E15" points="277.028,414.548 277.028,414.548 277.028,414.548 277.028,414.548 		"/>
		<polyline fill="#FF4D00" points="277.028,414.548 233.492,439.781 233.492,439.781 277.028,414.548 277.028,414.548 		"/>
		<polyline fill="#FF5006" points="211.635,376.699 211.635,376.699 277.028,414.548 277.028,414.548 211.635,376.699 		"/>
		<polyline fill="#FF3100" points="211.635,376.699 167.922,401.932 167.922,401.932 167.922,401.932 167.922,401.932 
			233.492,439.781 277.028,414.548 211.635,376.699 		"/>
		<polyline fill="#FF4E02" points="211.635,376.699 211.635,376.699 277.028,414.548 277.028,414.548 211.635,376.699 		"/>
		<polyline fill="#FF4D00" points="233.492,439.781 233.315,439.781 233.315,439.781 233.492,439.781 233.492,439.781 		"/>
		<polyline fill="#FF3100" points="167.922,401.932 167.922,401.932 233.315,439.781 233.492,439.781 167.922,401.932 		"/>
		<polyline fill="#AA7A8E" points="167.922,250.891 80.674,301.178 146.066,339.027 211.635,301.178 211.635,301.178 
			211.635,301.178 233.492,313.794 255.171,301.178 167.922,250.891 		"/>
		<polyline fill="#AA4D2B" points="211.635,301.178 146.066,339.027 167.922,351.644 167.922,351.644 146.243,339.027 
			211.635,301.178 211.635,301.178 		"/>
		<polyline fill="#AA7A8E" points="233.492,313.794 233.315,313.794 233.492,313.794 233.492,313.794 233.492,313.794 		"/>
		<polyline fill="#AA4D2B" points="233.315,313.794 167.922,351.644 167.922,351.644 233.492,313.794 233.315,313.794 		"/>
		<polyline fill="#713A4F" points="211.635,301.178 211.635,301.178 233.315,313.794 233.492,313.794 211.635,301.178 		"/>
		<polyline fill="#712519" points="211.635,301.178 146.243,339.027 167.922,351.644 233.315,313.794 211.635,301.178 		"/>
	</g>
</g>
<polygon fill="none" points="-131.317,85.456 -277.383,169.861 -310.612,150.848 -164.369,66.442 "/>
<g>
	<path fill="#FFFFFF" d="M300.306,553.506c-2.311-1.244-5.331-1.244-7.108-0.355c-1.776,1.066-1.954,2.844,0.533,4.265l8.529,4.976
		c0.533,0.355,0.355,0.889-0.355,1.422c-0.711,0.355-1.776,0.533-2.31,0.178l-13.86-7.996c-0.533-0.355-0.355-0.889,0.355-1.244
		s1.599-0.533,2.132-0.178l1.422,0.711c-0.533-1.244-0.355-2.666,1.777-3.909c1.954-1.244,4.976-1.244,7.641-0.533
		c-1.066-1.955-0.355-3.731,1.6-4.798c2.843-1.6,7.818-1.777,11.905,0.533l8.529,4.976c0.533,0.355,0.355,0.888-0.355,1.421
		c-0.711,0.355-1.777,0.533-2.311,0.178l-8.529-4.976c-2.487-1.421-5.686-1.243-7.285-0.355c-1.776,1.066-1.954,2.844,0.355,4.088
		l8.707,4.975c0.711,0.355,0.355,0.889-0.355,1.422c-0.533,0.355-1.6,0.533-2.311,0.178L300.306,553.506z"/>
	<path fill="#FFFFFF" d="M327.315,538.047l8.529,4.975c0.533,0.355,0.533,0.889-0.354,1.422c-0.711,0.355-1.6,0.533-2.133,0.178
		l-1.244-0.711c0.178,1.422-0.178,3.021-2.31,4.265c-2.488,1.422-5.687,1.6-8.707,0c-3.731-2.132-1.6-4.442,2.843-6.93l1.6-0.889
		l-0.711-0.355c-1.955-1.066-5.153-1.776-7.641-0.355c-2.311,1.244-1.955,2.311-2.488,2.488c-0.711,0.355-1.776,0.178-2.31-0.178
		c-1.066-0.533,0.533-2.488,2.665-3.731C319.319,535.381,324.116,536.27,327.315,538.047z M327.137,541.067l-1.065,0.711
		c-2.666,1.599-4.976,3.198-2.666,4.442c1.777,1.066,3.554,0.889,4.976,0c1.777-1.066,1.955-3.376,0.533-4.265L327.137,541.067z"/>
	<path fill="#FFFFFF" d="M328.737,531.116l1.422,0.711c-0.533-1.244-0.355-2.665,1.776-3.909c3.199-1.777,8.707-1.6,12.084,0.355
		l3.376,1.954c3.376,1.955,3.909,5.153,0.889,6.931c-1.955,1.066-4.798,1.421-6.931,0.889l8.885,5.152
		c0.533,0.355,0.355,0.889-0.355,1.422c-0.71,0.355-1.776,0.533-2.31,0.178l-21.501-12.438c-0.533-0.355-0.355-0.889,0.355-1.244
		C327.315,530.938,328.203,530.761,328.737,531.116z M341.353,529.872c-1.954-1.065-5.509-1.243-7.641-0.178
		c-1.777,1.066-2.133,2.844,0.355,4.265l4.265,2.488c0.889,0.533,4.62,0.889,6.752-0.355c1.955-1.066,1.6-3.198-0.355-4.442
		L341.353,529.872z"/>
	<path fill="#FFFFFF" d="M336.022,516.013l23.278,13.505c0.533,0.354,0.355,0.888-0.355,1.421c-0.71,0.355-1.776,0.533-2.31,0.178
		l-23.278-13.505c-0.533-0.355-0.355-0.889,0.355-1.244C334.423,515.835,335.49,515.657,336.022,516.013z"/>
	<path fill="#FFFFFF" d="M366.053,515.835l8.529,4.975c0.533,0.355,0.533,0.889-0.355,1.422c-0.711,0.355-1.6,0.533-2.133,0.178
		l-1.243-0.711c0.178,1.422-0.178,3.021-2.311,4.265c-2.31,1.422-5.687,1.6-8.707,0c-3.731-2.132-1.599-4.442,2.844-6.93
		l1.599-0.889l-0.711-0.355c-1.954-1.066-5.153-1.776-7.641-0.355c-2.31,1.244-1.955,2.311-2.487,2.488
		c-0.711,0.355-1.777,0.178-2.311-0.178c-1.066-0.533,0.533-2.488,2.665-3.731C358.057,512.991,362.676,513.88,366.053,515.835z
		 M365.875,518.678l-1.066,0.711c-2.665,1.599-4.976,3.198-2.665,4.442c1.776,1.066,3.554,0.889,4.975,0
		c1.777-1.066,1.955-3.376,0.533-4.265L365.875,518.678z"/>
	<path fill="#FFFFFF" d="M358.057,503.218l10.839,6.22c-0.533-1.066-0.355-2.665,1.6-3.909c3.198-1.777,8.707-1.6,12.083,0.355
		l3.376,1.954c3.376,1.955,3.909,5.153,0.889,6.931c-1.954,1.244-4.976,1.421-6.93,1.066l1.243,0.71
		c0.533,0.355,0.533,0.889-0.178,1.244c-0.71,0.355-1.776,0.533-2.31,0.178l-23.278-13.505c-0.533-0.355-0.355-0.889,0.355-1.244
		C356.457,503.04,357.524,503.04,358.057,503.218z M380.091,507.66c-1.955-1.065-5.509-1.243-7.464-0.178
		c-1.776,1.066-2.132,3.021,0.355,4.265l4.265,2.488c0.889,0.533,4.62,0.889,6.753-0.355c1.954-1.066,1.599-3.198-0.355-4.442
		L380.091,507.66z"/>
	<path fill="#FFFFFF" d="M397.15,507.127c0.889,0.533,1.066,1.422,0.178,1.955s-2.488,0.533-3.376,0
		c-0.889-0.533-1.066-1.422-0.178-1.955C394.661,506.417,396.083,506.595,397.15,507.127z"/>
</g>
</svg>
