<?xml version="1.0" encoding="utf-8"?>
<!-- Generator: Adobe Illustrator 16.0.4, SVG Export Plug-In . SVG Version: 6.00 Build 0)  -->
<!DOCTYPE svg PUBLIC "-//W3C//DTD SVG 1.1//EN" "http://www.w3.org/Graphics/SVG/1.1/DTD/svg11.dtd">
<svg version="1.1" id="Ebene_1" xmlns="http://www.w3.org/2000/svg" xmlns:xlink="http://www.w3.org/1999/xlink" x="0px" y="0px"
	 width="335px" height="335px" viewBox="0 0 335 335" enable-background="new 0 0 335 335" xml:space="preserve">
<polygon fill="#75B843" points="290.163,189.332 167.419,118.465 44.675,189.332 167.419,260.199 "/>
<polygon fill="#FF9F62" points="44.675,189.332 118.322,231.852 191.969,189.332 118.322,146.813 "/>
<polyline fill="#ACD7DB" points="93.773,217.678 142.871,189.332 93.773,160.986 93.772,160.986 44.675,189.332 93.772,217.678 "/>
<polygon opacity="0.8" fill="#FF9F62" points="44.675,146.813 118.322,189.332 191.969,146.813 118.322,104.293 "/>
<polygon opacity="0.8" fill="#FF9F62" points="118.351,189.525 130.625,182.439 93.802,161.18 93.801,161.18 81.528,168.266 "/>
<polygon opacity="0.7" fill="#FF9F62" points="118.323,146.813 93.773,160.986 93.774,160.986 130.597,182.246 155.146,168.072 "/>
<polyline opacity="0.8" fill="#ACD7DB" points="93.773,132.649 142.871,104.303 93.773,75.957 93.772,75.957 44.675,104.303 
	93.772,132.649 "/>
<g>
	<path fill="#FFFFFF" d="M161.044,243.668l2.255-1.358l1.081,1.082l0.062-0.038c-0.009-0.299,0.011-0.592,0.061-0.879
		c0.047-0.283,0.146-0.562,0.294-0.826c0.146-0.265,0.355-0.53,0.624-0.798c0.27-0.267,0.619-0.53,1.05-0.789
		c0.654-0.396,1.369-0.657,2.143-0.786c0.773-0.131,1.5-0.046,2.177,0.252c0.004-0.643,0.153-1.24,0.452-1.789
		c0.3-0.549,0.847-1.063,1.639-1.54c1.143-0.689,2.23-1.023,3.263-1.005c1.034,0.019,2.022,0.499,2.962,1.439l5.359,5.363
		l-2.384,1.436l-4.53-4.537c-0.311-0.31-0.607-0.585-0.891-0.824c-0.281-0.237-0.582-0.409-0.898-0.516
		c-0.318-0.105-0.66-0.128-1.023-0.068c-0.365,0.059-0.777,0.227-1.235,0.503c-0.81,0.488-1.213,1.021-1.215,1.599
		s0.327,1.198,0.987,1.859l4.547,4.552l-2.381,1.434l-4.98-4.987c-0.542-0.541-1.084-0.865-1.632-0.978s-1.182,0.05-1.906,0.486
		c-0.306,0.185-0.556,0.408-0.752,0.669c-0.194,0.264-0.315,0.544-0.361,0.844c-0.045,0.303-0.01,0.617,0.108,0.946
		c0.118,0.331,0.337,0.657,0.657,0.976l4.608,4.611l-2.38,1.434L161.044,243.668z"/>
	<path fill="#FFFFFF" d="M194.286,233.311c0.21,0.21,0.399,0.337,0.565,0.381c0.164,0.044,0.359-0.002,0.584-0.137
		c0.068-0.041,0.153-0.092,0.25-0.15c0.097-0.058,0.199-0.135,0.307-0.23l1.184,1.188c-0.065,0.068-0.15,0.157-0.256,0.262
		c-0.107,0.105-0.223,0.209-0.34,0.313c-0.121,0.103-0.244,0.202-0.375,0.295c-0.127,0.095-0.241,0.171-0.339,0.23
		c-0.487,0.294-0.96,0.466-1.421,0.52c-0.459,0.054-0.914-0.067-1.362-0.358c-0.143,0.615-0.483,1.206-1.023,1.771
		c-0.538,0.566-1.128,1.042-1.769,1.428c-0.487,0.293-1,0.525-1.542,0.7c-0.54,0.174-1.073,0.271-1.6,0.29
		c-0.526,0.021-1.032-0.052-1.519-0.215c-0.488-0.164-0.922-0.436-1.301-0.816c-0.481-0.48-0.748-0.945-0.805-1.393
		c-0.059-0.447,0.027-0.875,0.254-1.285c0.227-0.408,0.55-0.8,0.967-1.173c0.421-0.372,0.86-0.729,1.322-1.073
		c0.373-0.319,0.741-0.609,1.105-0.869c0.365-0.26,0.666-0.51,0.908-0.752c0.236-0.24,0.38-0.473,0.431-0.705
		c0.047-0.23-0.053-0.47-0.304-0.721c-0.22-0.221-0.473-0.355-0.759-0.408c-0.287-0.053-0.575-0.051-0.866,0.004
		c-0.289,0.055-0.58,0.15-0.869,0.283c-0.289,0.136-0.553,0.274-0.789,0.417c-0.668,0.402-1.119,0.834-1.35,1.294
		c-0.232,0.46-0.167,0.919,0.199,1.372l-2.38,1.435c-0.458-0.525-0.707-1.041-0.746-1.549c-0.036-0.506,0.07-0.996,0.321-1.469
		c0.254-0.475,0.625-0.921,1.114-1.345c0.493-0.425,1.038-0.817,1.636-1.179c0.527-0.318,1.092-0.594,1.686-0.824
		c0.596-0.229,1.189-0.379,1.779-0.446c0.591-0.066,1.154-0.033,1.689,0.101c0.535,0.135,1.01,0.408,1.42,0.818L194.286,233.311z
		 M189.746,232.582c-0.194,0.389-0.535,0.758-1.03,1.113c-0.494,0.354-0.97,0.725-1.429,1.114c-0.221,0.181-0.422,0.371-0.602,0.567
		c-0.184,0.197-0.316,0.398-0.404,0.604c-0.085,0.205-0.104,0.416-0.053,0.633c0.051,0.219,0.187,0.438,0.405,0.658
		c0.19,0.19,0.429,0.305,0.712,0.343s0.568,0.03,0.86-0.026c0.292-0.055,0.579-0.145,0.866-0.271
		c0.289-0.125,0.537-0.25,0.744-0.376c0.266-0.16,0.526-0.357,0.783-0.591c0.256-0.235,0.459-0.495,0.61-0.778
		c0.152-0.283,0.226-0.573,0.222-0.867c-0.004-0.293-0.142-0.576-0.411-0.848L189.746,232.582z"/>
	<path fill="#FFFFFF" d="M190.884,225.686l2.255-1.359l1.052,1.053l0.042-0.025c-0.117-0.652,0.027-1.258,0.43-1.812
		s0.953-1.043,1.649-1.463c0.851-0.512,1.696-0.852,2.547-1.018c0.849-0.166,1.669-0.188,2.464-0.064
		c0.791,0.124,1.543,0.374,2.252,0.748c0.707,0.375,1.347,0.849,1.918,1.419c0.52,0.521,0.933,1.083,1.234,1.687
		c0.302,0.605,0.447,1.209,0.442,1.816c-0.009,0.605-0.192,1.197-0.554,1.775c-0.357,0.578-0.935,1.105-1.727,1.584
		c-0.35,0.21-0.721,0.396-1.113,0.561c-0.394,0.166-0.799,0.295-1.219,0.387c-0.421,0.094-0.844,0.145-1.271,0.152
		c-0.426,0.009-0.835-0.038-1.227-0.139l-0.041,0.023l3.873,3.877l-2.383,1.435L190.884,225.686z M203.081,224.567
		c-0.35-0.351-0.753-0.653-1.208-0.908c-0.455-0.254-0.938-0.435-1.441-0.538c-0.506-0.104-1.025-0.121-1.555-0.051
		c-0.531,0.071-1.04,0.254-1.528,0.549c-1.001,0.604-1.507,1.31-1.515,2.115c-0.008,0.808,0.404,1.627,1.234,2.457
		c0.389,0.391,0.816,0.715,1.285,0.969c0.468,0.258,0.955,0.426,1.459,0.506c0.504,0.082,1.011,0.082,1.52-0.002
		c0.511-0.08,1.007-0.27,1.495-0.563c0.542-0.327,0.922-0.685,1.138-1.07c0.215-0.388,0.318-0.782,0.307-1.183
		c-0.013-0.402-0.128-0.797-0.35-1.186C203.702,225.273,203.423,224.908,203.081,224.567z"/>
	<path fill="#FFFFFF" d="M200.686,215.038l2.381-1.437l10.715,10.727l-2.38,1.436L200.686,215.038z"/>
	<path fill="#FFFFFF" d="M223.688,215.59c0.21,0.211,0.398,0.338,0.564,0.383c0.166,0.044,0.361-0.002,0.584-0.136
		c0.068-0.042,0.154-0.093,0.25-0.151c0.098-0.059,0.198-0.135,0.304-0.231l1.188,1.188c-0.065,0.069-0.149,0.157-0.257,0.262
		c-0.106,0.104-0.221,0.21-0.341,0.313c-0.118,0.104-0.243,0.203-0.371,0.296c-0.13,0.095-0.243,0.171-0.341,0.23
		c-0.488,0.292-0.962,0.467-1.421,0.519c-0.46,0.053-0.913-0.066-1.362-0.357c-0.145,0.614-0.483,1.206-1.024,1.771
		c-0.538,0.566-1.128,1.042-1.769,1.429c-0.485,0.293-1.001,0.526-1.539,0.699c-0.543,0.174-1.074,0.271-1.602,0.291
		c-0.526,0.02-1.033-0.052-1.521-0.216s-0.921-0.435-1.301-0.815c-0.479-0.48-0.749-0.945-0.804-1.393
		c-0.056-0.447,0.029-0.875,0.254-1.285c0.229-0.409,0.549-0.801,0.97-1.174c0.418-0.373,0.86-0.729,1.321-1.072
		c0.37-0.32,0.738-0.609,1.104-0.87c0.365-0.26,0.666-0.51,0.907-0.75c0.238-0.241,0.383-0.476,0.431-0.706
		c0.05-0.23-0.053-0.47-0.301-0.721c-0.221-0.22-0.473-0.356-0.76-0.408c-0.286-0.053-0.574-0.051-0.865,0.003
		c-0.293,0.056-0.582,0.151-0.873,0.285c-0.286,0.134-0.55,0.272-0.788,0.416c-0.668,0.401-1.118,0.834-1.349,1.294
		c-0.231,0.46-0.166,0.918,0.2,1.372l-2.382,1.435c-0.458-0.527-0.706-1.042-0.744-1.55c-0.038-0.505,0.07-0.995,0.322-1.469
		c0.252-0.473,0.623-0.921,1.114-1.347c0.491-0.422,1.035-0.814,1.636-1.176c0.527-0.32,1.091-0.595,1.686-0.823
		c0.594-0.231,1.188-0.38,1.776-0.447c0.591-0.067,1.157-0.034,1.692,0.101c0.534,0.135,1.008,0.407,1.416,0.818L223.688,215.59z
		 M219.146,214.863c-0.192,0.387-0.535,0.76-1.029,1.113s-0.97,0.725-1.429,1.112c-0.219,0.183-0.422,0.372-0.604,0.569
		c-0.182,0.198-0.315,0.398-0.4,0.602c-0.088,0.205-0.104,0.418-0.055,0.635c0.052,0.219,0.188,0.438,0.407,0.657
		c0.19,0.19,0.426,0.306,0.709,0.343c0.284,0.037,0.569,0.031,0.86-0.026c0.291-0.055,0.58-0.144,0.868-0.271
		c0.287-0.124,0.536-0.25,0.746-0.375c0.263-0.16,0.524-0.356,0.78-0.592c0.256-0.234,0.46-0.494,0.611-0.777
		c0.15-0.285,0.226-0.572,0.221-0.867c-0.004-0.295-0.143-0.576-0.41-0.848L219.146,214.863z"/>
	<path fill="#FFFFFF" d="M217.328,205.008l2.381-1.435l3.963,3.966l0.041-0.025c-0.022-0.291,0.009-0.583,0.095-0.877
		c0.087-0.291,0.221-0.576,0.4-0.854c0.181-0.277,0.4-0.539,0.658-0.783c0.258-0.243,0.539-0.457,0.847-0.643
		c0.848-0.511,1.697-0.851,2.547-1.016c0.849-0.168,1.669-0.188,2.463-0.064c0.791,0.123,1.543,0.373,2.252,0.748
		s1.348,0.848,1.919,1.419c0.52,0.521,0.931,1.082,1.232,1.688c0.304,0.604,0.449,1.208,0.444,1.814
		c-0.009,0.606-0.194,1.198-0.553,1.776c-0.357,0.577-0.935,1.104-1.729,1.584c-0.361,0.217-0.745,0.42-1.149,0.607
		s-0.822,0.332-1.256,0.433c-0.434,0.103-0.867,0.154-1.299,0.157c-0.432,0.004-0.869-0.07-1.311-0.222l-0.041,0.024l1.064,1.066
		l-2.254,1.36L217.328,205.008z M232.481,206.849c-0.348-0.352-0.751-0.653-1.208-0.907c-0.455-0.256-0.935-0.436-1.441-0.539
		c-0.504-0.104-1.023-0.122-1.555-0.051c-0.53,0.07-1.041,0.255-1.527,0.547c-1.002,0.604-1.506,1.311-1.514,2.117
		c-0.01,0.808,0.402,1.627,1.232,2.457c0.391,0.391,0.818,0.715,1.287,0.969c0.468,0.256,0.952,0.426,1.459,0.506
		c0.501,0.081,1.01,0.081,1.52-0.002c0.508-0.082,1.006-0.27,1.492-0.562c0.544-0.328,0.923-0.686,1.139-1.072
		c0.219-0.387,0.318-0.78,0.307-1.184c-0.013-0.4-0.127-0.797-0.348-1.186S232.823,207.188,232.481,206.849z"/>
</g>
</svg>
